<?xml version="1.0" encoding="utf-8"?>
<!-- Svg Vector Icons : http://www.onlinewebfonts.com/icon -->
<!DOCTYPE svg PUBLIC "-//W3C//DTD SVG 1.1//EN" "http://www.w3.org/Graphics/SVG/1.1/DTD/svg11.dtd">
<svg version="1.1" xmlns="http://www.w3.org/2000/svg" xmlns:xlink="http://www.w3.org/1999/xlink" x="0px" y="0px" viewBox="0 0 1000 1000" enable-background="new 0 0 1000 1000" xml:space="preserve">
<metadata> Svg Vector Icons : http://www.onlinewebfonts.com/icon </metadata>
<g><path d="M964.5,426.9v-43.2h-35.4v43.2h-40.7v-43.2h-35.4v43.2h-45.6v-43.2h-35.4v43.2h-40.7v-43.2H696v43.2h-8.2v34.2h29.4v92.3h-114V405.6h-9.8V292.2l-87.8-146.2V76.2c21.6-20.9,39.8-20.6,68.7-12.6c30.1,8.3,48.6,8.4,71.6-15.5c-53.9,32.7-87.1-60.9-140.3-32.7V10h-13.4v139.5l-85.6,142.6v113.4h-9.8v147.8H282.8v-92.3h29.4v-34.2H304v-43.2h-35.4v43.2h-40.7v-43.2h-35.4v43.2h-45.6v-43.2h-35.4v43.2H70.9v-43.2H35.5v43.2h-8.2v34.2h29.4V990h190h36.1h434.5h36.1h189.9V461.1h29.4v-34.2H964.5L964.5,426.9z M197,929.4h-54.5V844c0-15,12.2-27.2,27.2-27.2S197,828.9,197,844L197,929.4L197,929.4z M247.2,484.8h-155v-23.7h155V484.8z M500,279.7c33.9,13.9,32.3,36.3,32.3,36.3v74.3H500h-32.3V316C467.7,316,466.1,293.6,500,279.7z M593.5,717.2V932H500h-93.5V717.2c0,0-4.4-64.8,93.5-104.9C597.9,652.4,593.5,717.2,593.5,717.2z M857.5,929.4H803V844c0-15,12.2-27.2,27.2-27.2c15,0,27.2,12.2,27.2,27.2V929.4z M907.8,484.8h-155v-23.7h155V484.8z"/><g></g><g></g><g></g><g></g><g></g><g></g><g></g><g></g><g></g><g></g><g></g><g></g><g></g><g></g><g></g></g>
</svg>